<?xml version="1.0" encoding="UTF-8" standalone="no"?>
<svg
   class="img-fluid"
   id="outputsvg"
   style="transform: matrix(1, 0, 0, 1, 0, 0); transform-origin: 50% 50%; cursor: move; transition: transform 200ms ease-in-out 0s;"
   width="500"
   height="529"
   viewBox="0 0 5000 5290"
   version="1.1"
   sodipodi:docname="image (1).svg"
   inkscape:version="1.1 (c4e8f9e, 2021-05-24)"
   inkscape:export-filename="/Users/DMY/Downloads/wf emblem 95x100.png"
   inkscape:export-xdpi="18.147448"
   inkscape:export-ydpi="18.147448"
   xmlns:inkscape="http://www.inkscape.org/namespaces/inkscape"
   xmlns:sodipodi="http://sodipodi.sourceforge.net/DTD/sodipodi-0.dtd"
   xmlns="http://www.w3.org/2000/svg"
   xmlns:svg="http://www.w3.org/2000/svg">
  <defs
     id="defs992" />
  <sodipodi:namedview
     id="namedview990"
     pagecolor="#ffffff"
     bordercolor="#111111"
     borderopacity="1"
     inkscape:pageshadow="0"
     inkscape:pageopacity="0"
     inkscape:pagecheckerboard="1"
     showgrid="false"
     inkscape:zoom="0.64354711"
     inkscape:cx="173.25849"
     inkscape:cy="265.71481"
     inkscape:current-layer="outputsvg" />
  <g
     id="g1064">
    <g
       id="l1QvvTofpHALgWwhamQ5ItY"
       fill="rgb(160,194,222)"
       style="transform: none;">
      <g
         id="g977">
        <path
           id="p7TmYWOjA"
           d="M2765 5270 c-11 -18 15 -40 89 -77 101 -51 136 -61 276 -83 166 -26 204 -37 232 -68 l23 -25 -25 6 c-91 22 -329 61 -457 75 l-153 17 -42 42 c-54 52 -131 91 -209 106 -113 21 -472 -19 -525 -58 -17 -12 -17 -15 -4 -29 44 -45 229 -62 461 -42 110 9 184 2 144 -14 -11 -5 -43 -9 -71 -9 -70 -1 -272 -36 -423 -72 l-124 -30 -61 27 c-96 43 -186 45 -306 5 -125 -41 -348 -151 -384 -189 l-28 -30 22 -12 c16 -8 44 -9 113 0 114 13 103 10 272 85 145 64 209 83 220 65 3 -5 0 -10 -8 -10 -32 0 -301 -145 -407 -219 -69 -48 -121 -78 -130 -75 -37 14 -125 16 -182 4 -72 -16 -153 -67 -290 -185 -128 -111 -216 -221 -194 -242 10 -10 87 17 166 58 51 26 111 71 185 140 110 100 172 143 202 137 10 -2 -22 -36 -89 -95 -99 -87 -208 -200 -290 -303 -33 -41 -44 -47 -108 -62 -144 -34 -218 -110 -334 -343 -89 -177 -120 -281 -87 -293 8 -2 46 29 92 77 70 72 87 97 154 233 41 84 81 160 88 169 15 19 67 54 67 44 0 -3 -17 -37 -39 -73 -57 -99 -118 -223 -171 -346 -45 -105 -49 -111 -86 -123 -44 -15 -122 -76 -163 -127 -32 -40 -98 -200 -136 -331 -28 -94 -42 -202 -31 -231 6 -15 10 -14 37 12 33 32 111 151 129 199 7 17 28 82 47 145 39 129 61 176 94 205 l22 20 -7 -20 c-39 -105 -97 -362 -115 -513 -8 -60 -14 -77 -33 -90 -59 -42 -99 -88 -132 -155 -35 -72 -36 -77 -42 -223 -9 -214 17 -424 52 -424 19 0 39 48 65 158 19 78 20 104 14 253 -7 155 -6 169 13 213 30 66 42 59 42 -28 0 -98 17 -308 35 -429 l15 -98 -40 -58 c-42 -61 -70 -149 -70 -216 0 -144 142 -562 188 -553 15 3 17 19 16 138 0 131 -1 139 -43 265 -49 149 -61 229 -38 260 13 16 16 17 20 5 3 -8 17 -55 32 -105 33 -112 99 -274 161 -396 l47 -94 -17 -62 c-27 -104 -16 -209 32 -293 93 -164 292 -410 331 -410 21 0 9 71 -29 168 -24 63 -56 116 -128 210 -102 136 -122 173 -122 224 0 30 2 29 46 -38 75 -112 141 -192 255 -309 l107 -110 5 -60 c10 -113 39 -169 146 -279 137 -141 302 -266 350 -266 28 0 27 13 -10 79 -57 100 -106 157 -216 248 -126 106 -148 128 -162 166 -11 27 -9 27 52 -17 83 -60 255 -165 344 -210 116 -58 398 -165 408 -155 2 2 6 16 10 30 6 26 1 29 -167 111 -95 46 -220 113 -278 148 -115 69 -292 191 -286 197 7 7 113 -39 236 -104 125 -66 232 -103 303 -103 49 0 48 17 -6 67 -87 80 -269 188 -402 239 -60 22 -80 25 -145 21 -41 -3 -84 -8 -96 -12 -17 -5 -41 14 -128 102 -96 96 -246 277 -246 297 0 15 67 -33 185 -134 123 -105 223 -166 291 -177 19 -3 34 -1 34 4 0 45 -187 246 -330 355 -83 63 -136 86 -222 95 l-57 6 -40 76 c-71 137 -191 454 -177 468 8 8 54 -63 126 -189 92 -165 213 -299 242 -270 26 26 -88 291 -194 453 -52 78 -116 137 -181 164 -32 13 -37 20 -46 67 -31 152 -62 522 -43 503 13 -13 53 -142 83 -268 34 -144 127 -312 156 -283 14 14 4 170 -18 277 -47 228 -98 345 -184 416 l-34 28 24 115 c28 138 68 293 95 375 l20 60 -7 -155 c-11 -229 -8 -326 14 -390 10 -30 23 -55 28 -55 34 0 79 185 97 398 14 167 9 199 -44 305 l-31 62 28 68 c34 82 135 282 170 337 l25 40 -6 -40 c-4 -22 -22 -105 -40 -185 -19 -80 -34 -165 -33 -190 0 -56 13 -138 23 -148 26 -25 99 136 148 328 39 154 45 238 24 319 l-16 64 26 39 c46 67 154 188 248 279 130 128 128 113 -14 -91 -102 -148 -171 -306 -139 -325 28 -18 143 95 253 249 99 138 126 194 139 292 l12 88 90 59 c83 54 337 187 358 187 11 0 -86 -81 -188 -157 -69 -51 -104 -88 -157 -167 -35 -51 -35 -66 -3 -66 54 0 255 123 392 240 60 51 80 76 110 139 21 42 42 79 47 82 18 13 264 68 373 84 174 25 175 16 3 -43 -266 -91 -411 -216 -229 -197 91 9 252 52 366 96 94 37 113 49 170 105 l63 64 83 0 c100 -1 245 -14 392 -36 135 -21 120 -31 -74 -45 -75 -5 -161 -13 -191 -18 -67 -11 -161 -46 -192 -71 l-23 -19 40 -18 c34 -15 68 -18 225 -18 265 0 356 22 446 107 l31 29 69 -19 c38 -11 120 -38 183 -61 62 -22 117 -38 121 -36 5 3 19 25 33 49 l24 43 -193 62 -194 62 -20 40 c-27 51 -82 113 -136 150 -46 31 -172 68 -318 94 -102 17 -272 20 -281 5z" />
        <path
           id="p119oap17g"
           d="M2605 4629 c-323 -34 -686 -164 -953 -343 -526 -351 -861 -876 -958 -1502 -23 -150 -23 -460 0 -609 39 -253 104 -454 219 -680 220 -429 564 -762 1004 -972 444 -211 968 -261 1453 -137 849 217 1484 931 1605 1804 20 147 21 430 1 570 -53 377 -190 712 -413 1015 -81 110 -309 340 -418 422 -389 293 -849 446 -1325 442 -74 -1 -171 -5 -215 -10z m502 -205 c325 -48 649 -187 918 -393 82 -62 244 -220 320 -311 299 -358 471 -855 452 -1305 -28 -668 -399 -1286 -978 -1628 -337 -199 -757 -300 -1117 -269 -858 75 -1563 671 -1773 1498 -145 575 -15 1176 359 1661 331 426 839 706 1387 762 110 12 301 5 432 -15z" />
        <path
           id="pdBo1LHte"
           d="M2600 4389 c-735 -83 -1360 -589 -1589 -1286 -105 -318 -126 -711 -56 -1042 169 -798 828 -1398 1640 -1491 116 -13 364 -13 480 0 770 89 1417 645 1614 1390 52 198 64 314 58 575 -4 196 -9 248 -31 350 -174 818 -831 1414 -1658 1504 -112 13 -348 12 -458 0z m7 -1339 c82 -253 146 -457 141 -454 -57 35 -763 558 -763 564 0 9 452 347 465 349 3 1 74 -206 157 -459z m844 290 c129 -94 234 -174 234 -179 0 -7 -536 -403 -742 -549 l-31 -22 32 102 c60 189 268 818 271 818 1 0 108 -77 236 -170z m-746 -899 c-15 -15 -789 -571 -791 -568 -1 2 -152 470 -178 555 l-7 22 492 0 c309 0 489 -4 484 -9z m1232 -4 c-3 -7 -45 -136 -93 -285 -48 -150 -92 -272 -96 -272 -10 0 -788 559 -788 566 0 2 221 4 491 4 403 0 490 -2 486 -13z m-947 -567 l147 -455 -300 -3 c-165 -1 -301 -1 -303 1 -2 1 44 149 102 327 57 179 125 390 151 470 25 80 49 138 51 130 3 -8 72 -220 152 -470z" />
      </g>
    </g>
    <g
       id="l4JpKZJevyrxlnu5MK9oeEj"
       fill="rgb(255,255,255)"
       style="transform: none;">
      <g
         id="g986">
        <path
           id="pNb998auh"
           d="M2645 4469 c-618 -59 -1182 -411 -1512 -942 -279 -452 -366 -1020 -234 -1541 170 -667 667 -1196 1326 -1409 907 -293 1893 99 2358 938 153 275 233 571 244 900 11 338 -57 658 -204 950 -373 745 -1156 1182 -1978 1104z m383 -110 c227 -24 433 -83 627 -178 535 -262 907 -740 1031 -1326 35 -164 44 -464 20 -635 -90 -624 -468 -1149 -1030 -1432 -931 -468 -2076 -81 -2536 857 -364 743 -209 1624 387 2196 405 388 955 578 1501 518z" />
        <path
           id="pIG6F6DE3"
           d="M2186 3369 c-152 -111 -275 -206 -274 -210 4 -11 909 -671 914 -667 5 5 -344 1060 -354 1070 -5 5 -123 -74 -286 -193z" />
        <path
           id="pS3NR6DZi"
           d="M3193 3557 c-12 -14 -354 -1059 -349 -1064 4 -4 910 655 914 666 2 6 -488 370 -544 404 -7 4 -16 1 -21 -6z" />
        <path
           id="pzimnsPHs"
           d="M1683 2468 c2 -7 51 -158 108 -336 59 -184 108 -321 114 -319 14 6 886 635 905 653 12 12 -61 14 -559 14 -454 0 -572 -3 -568 -12z" />
        <path
           id="p1Dcez42iF"
           d="M2860 2465 c39 -37 905 -654 911 -647 4 4 53 148 109 321 56 173 104 321 107 328 4 11 -100 13 -568 13 -501 0 -571 -2 -559 -15z" />
        <path
           id="p197uH3DDo"
           d="M2825 2449 c-19 -50 -343 -1064 -341 -1066 2 -2 160 -2 353 -1 l350 3 -172 533 c-95 293 -175 535 -178 539 -4 3 -9 0 -12 -8z" />
      </g>
    </g>
  </g>
</svg>
