<?xml version="1.0" encoding="UTF-8" standalone="no"?>
<svg
   class="img-fluid"
   id="outputsvg"
   style="transform: matrix(1, 0, 0, 1, 0, 0); transform-origin: 50% 50%; cursor: move; transition: transform 200ms ease-in-out 0s;"
   width="500"
   height="529"
   viewBox="0 0 5000 5290"
   version="1.1"
   sodipodi:docname="wf emblem bw.svg"
   inkscape:version="1.1 (c4e8f9e, 2021-05-24)"
   inkscape:export-filename="/Users/DMY/Downloads/wf emblem bw.png"
   inkscape:export-xdpi="300"
   inkscape:export-ydpi="300"
   xmlns:inkscape="http://www.inkscape.org/namespaces/inkscape"
   xmlns:sodipodi="http://sodipodi.sourceforge.net/DTD/sodipodi-0.dtd"
   xmlns="http://www.w3.org/2000/svg"
   xmlns:svg="http://www.w3.org/2000/svg">
  <defs
     id="defs992" />
  <sodipodi:namedview
     id="namedview990"
     pagecolor="#ffffff"
     bordercolor="#111111"
     borderopacity="1"
     inkscape:pageshadow="0"
     inkscape:pageopacity="0"
     inkscape:pagecheckerboard="1"
     showgrid="false"
     inkscape:zoom="0.94542357"
     inkscape:cx="255.44106"
     inkscape:cy="288.75946"
     inkscape:current-layer="outputsvg" />
  <path
     id="p7TmYWOjA"
     d="m 2765,5270 c -11,-18 15,-40 89,-77 101,-51 136,-61 276,-83 166,-26 204,-37 232,-68 l 23,-25 -25,6 c -91,22 -329,61 -457,75 l -153,17 -42,42 c -54,52 -131,91 -209,106 -113,21 -472,-19 -525,-58 -17,-12 -17,-15 -4,-29 44,-45 229,-62 461,-42 110,9 184,2 144,-14 -11,-5 -43,-9 -71,-9 -70,-1 -272,-36 -423,-72 l -124,-30 -61,27 c -96,43 -186,45 -306,5 -125,-41 -348,-151 -384,-189 l -28,-30 22,-12 c 16,-8 44,-9 113,0 114,13 103,10 272,85 145,64 209,83 220,65 3,-5 0,-10 -8,-10 -32,0 -301,-145 -407,-219 -69,-48 -121,-78 -130,-75 -37,14 -125,16 -182,4 -72,-16 -153,-67 -290,-185 -128,-111 -216,-221 -194,-242 10,-10 87,17 166,58 51,26 111,71 185,140 110,100 172,143 202,137 10,-2 -22,-36 -89,-95 -99,-87 -208,-200 -290,-303 -33,-41 -44,-47 -108,-62 -144,-34 -218,-110 -334,-343 -89,-177 -120,-281 -87,-293 8,-2 46,29 92,77 70,72 87,97 154,233 41,84 81,160 88,169 15,19 67,54 67,44 0,-3 -17,-37 -39,-73 C 544,3823 483,3699 430,3576 385,3471 381,3465 344,3453 300,3438 222,3377 181,3326 149,3286 83,3126 45,2995 17,2901 3,2793 14,2764 c 6,-15 10,-14 37,12 33,32 111,151 129,199 7,17 28,82 47,145 39,129 61,176 94,205 l 22,20 -7,-20 c -39,-105 -97,-362 -115,-513 -8,-60 -14,-77 -33,-90 -59,-42 -99,-88 -132,-155 -35,-72 -36,-77 -42,-223 -9,-214 17,-424 52,-424 19,0 39,48 65,158 19,78 20,104 14,253 -7,155 -6,169 13,213 30,66 42,59 42,-28 0,-98 17,-308 35,-429 l 15,-98 -40,-58 c -42,-61 -70,-149 -70,-216 0,-144 142,-562 188,-553 15,3 17,19 16,138 0,131 -1,139 -43,265 -49,149 -61,229 -38,260 13,16 16,17 20,5 3,-8 17,-55 32,-105 33,-112 99,-274 161,-396 l 47,-94 -17,-62 C 479,1069 490,964 538,880 631,716 830,470 869,470 c 21,0 9,71 -29,168 -24,63 -56,116 -128,210 -102,136 -122,173 -122,224 0,30 2,29 46,-38 75,-112 141,-192 255,-309 l 107,-110 5,-60 c 10,-113 39,-169 146,-279 137,-141 302,-266 350,-266 28,0 27,13 -10,79 -57,100 -106,157 -216,248 -126,106 -148,128 -162,166 -11,27 -9,27 52,-17 83,-60 255,-165 344,-210 116,-58 398,-165 408,-155 2,2 6,16 10,30 6,26 1,29 -167,111 -95,46 -220,113 -278,148 -115,69 -292,191 -286,197 7,7 113,-39 236,-104 125,-66 232,-103 303,-103 49,0 48,17 -6,67 -87,80 -269,188 -402,239 -60,22 -80,25 -145,21 -41,-3 -84,-8 -96,-12 -17,-5 -41,14 -128,102 -96,96 -246,277 -246,297 0,15 67,-33 185,-134 123,-105 223,-166 291,-177 19,-3 34,-1 34,4 0,45 -187,246 -330,355 -83,63 -136,86 -222,95 l -57,6 -40,76 c -71,137 -191,454 -177,468 8,8 54,-63 126,-189 92,-165 213,-299 242,-270 26,26 -88,291 -194,453 -52,78 -116,137 -181,164 -32,13 -37,20 -46,67 -31,152 -62,522 -43,503 13,-13 53,-142 83,-268 34,-144 127,-312 156,-283 14,14 4,170 -18,277 -47,228 -98,345 -184,416 l -34,28 24,115 c 28,138 68,293 95,375 l 20,60 -7,-155 c -11,-229 -8,-326 14,-390 10,-30 23,-55 28,-55 34,0 79,185 97,398 14,167 9,199 -44,305 l -31,62 28,68 c 34,82 135,282 170,337 l 25,40 -6,-40 c -4,-22 -22,-105 -40,-185 -19,-80 -34,-165 -33,-190 0,-56 13,-138 23,-148 26,-25 99,136 148,328 39,154 45,238 24,319 l -16,64 26,39 c 46,67 154,188 248,279 130,128 128,113 -14,-91 -102,-148 -171,-306 -139,-325 28,-18 143,95 253,249 99,138 126,194 139,292 l 12,88 90,59 c 83,54 337,187 358,187 11,0 -86,-81 -188,-157 -69,-51 -104,-88 -157,-167 -35,-51 -35,-66 -3,-66 54,0 255,123 392,240 60,51 80,76 110,139 21,42 42,79 47,82 18,13 264,68 373,84 174,25 175,16 3,-43 -266,-91 -411,-216 -229,-197 91,9 252,52 366,96 94,37 113,49 170,105 l 63,64 h 83 c 100,-1 245,-14 392,-36 135,-21 120,-31 -74,-45 -75,-5 -161,-13 -191,-18 -67,-11 -161,-46 -192,-71 l -23,-19 40,-18 c 34,-15 68,-18 225,-18 265,0 356,22 446,107 l 31,29 69,-19 c 38,-11 120,-38 183,-61 62,-22 117,-38 121,-36 5,3 19,25 33,49 l 24,43 -193,62 -194,62 -20,40 c -27,51 -82,113 -136,150 -46,31 -172,68 -318,94 -102,17 -272,20 -281,5 z"
     style="fill:#000000;fill-opacity:1" />
  <path
     id="p119oap17g"
     style="fill:#000000;stroke-width:0.1;fill-opacity:1"
     d="M 300.08008 32.542969 C 262.80039 29.707031 224.99922 36.475781 191.69922 52.300781 C 147.69922 73.300781 113.30078 106.6 91.300781 149.5 C 79.800781 172.1 73.300391 192.2 69.400391 217.5 C 67.100391 232.4 67.100391 263.40039 69.400391 278.40039 C 79.100391 341.00039 112.59922 393.49961 165.19922 428.59961 C 191.89922 446.49961 228.2 459.50039 260.5 462.90039 C 264.9 463.40039 274.6 463.80039 282 463.90039 C 329.6 464.30039 375.6 448.99922 414.5 419.69922 C 425.4 411.49922 448.20078 388.5 456.30078 377.5 C 478.60078 347.2 492.29961 313.7 497.59961 276 C 499.59961 262 499.5 233.7 497.5 219 C 485.4 131.7 421.9 60.299609 337 38.599609 C 324.875 35.499609 312.50664 33.488281 300.08008 32.542969 z M 291.06836 48.197266 C 359.24336 50.794141 423.42578 88.575 458.30078 151.5 C 473.60078 179 481.59922 208.6 482.69922 241.5 C 483.79922 275.3 477.00078 307.3 462.30078 336.5 C 425.00078 411 346.7 454.70039 264.5 446.90039 C 202.7 441.00039 146.30078 405.79922 113.30078 352.69922 C 85.400781 307.49922 76.700391 250.69961 89.900391 198.59961 C 106.90039 131.89961 156.6 78.999219 222.5 57.699219 C 245.175 50.374219 268.34336 47.331641 291.06836 48.197266 z "
     transform="scale(10)" />
  <path
     id="pdBo1LHte"
     style="fill:#000000;stroke-width:0.1;fill-opacity:1"
     d="M 281.37695 58.929688 C 212.55293 59.83418 146.34375 98.546875 114 164.5 C 77.6 238.8 93.099217 326.89961 152.69922 384.09961 C 193.19922 422.89961 248.20078 441.90039 302.80078 435.90039 C 325.50078 433.50039 346.1 427.59961 365.5 418.09961 C 419 391.89961 456.19961 344.1 468.59961 285.5 C 472.09961 269.1 472.99961 239.1 470.59961 222 C 461.59961 159.6 423.79961 107.10078 367.59961 78.800781 C 344.32461 67.100781 319.71328 60.743359 295.16797 59.255859 C 290.56572 58.976953 285.96522 58.869388 281.37695 58.929688 z M 258.88672 138.13672 C 265.27422 138.12422 274.04922 138.14922 283.69922 138.19922 L 318.69922 138.5 L 301.5 191.80078 C 292 221.10078 283.99922 245.29922 283.69922 245.69922 C 283.29922 245.99922 282.8 245.70039 282.5 244.90039 C 280.6 239.90039 248.20039 138.50078 248.40039 138.30078 C 248.50039 138.20078 252.49922 138.14922 258.88672 138.13672 z M 190.5 181.30078 C 191.9 181.90078 279.1 244.79961 281 246.59961 C 282.2 247.79961 274.89961 248 225.09961 248 C 179.69961 248 167.90078 247.70078 168.30078 246.80078 C 168.50078 246.10078 173.39961 230.99922 179.09961 213.19922 C 184.99961 194.79922 189.9 181.10078 190.5 181.30078 z M 377.09961 181.80078 C 377.49961 182.20078 382.4 196.60039 388 213.90039 C 393.6 231.20039 398.39922 245.99922 398.69922 246.69922 C 399.09922 247.79922 388.70039 248 341.90039 248 C 291.80039 248 284.8 247.8 286 246.5 C 289.9 242.8 376.49961 181.10078 377.09961 181.80078 z M 282.59961 249.19922 C 283.09961 249.69922 248.19922 355.19922 247.19922 356.19922 C 246.69922 356.69922 234.89961 348.80039 218.59961 336.90039 C 203.39961 325.80039 191.09922 316.30039 191.19922 315.90039 C 191.59922 314.80039 282.09961 248.79922 282.59961 249.19922 z M 284.40039 249.30078 C 284.80039 248.90078 375.40078 314.80039 375.80078 315.90039 C 376.00078 316.50039 327.00039 352.90078 321.40039 356.30078 C 320.70039 356.70078 319.80078 356.39922 319.30078 355.69922 C 318.10078 354.29922 283.90039 249.80078 284.40039 249.30078 z "
     transform="scale(10)" />
</svg>
