<?xml version="1.0" encoding="UTF-8" standalone="no"?>
<svg
   class="img-fluid"
   id="outputsvg"
   style="transform: matrix(1, 0, 0, 1, 0, 0); transform-origin: 50% 50%; cursor: move; transition: transform 200ms ease-in-out 0s;"
   width="1037"
   height="194"
   viewBox="0 0 10370 1940"
   version="1.1"
   sodipodi:docname="image.svg"
   inkscape:version="1.1 (c4e8f9e, 2021-05-24)"
   xmlns:inkscape="http://www.inkscape.org/namespaces/inkscape"
   xmlns:sodipodi="http://sodipodi.sourceforge.net/DTD/sodipodi-0.dtd"
   xmlns="http://www.w3.org/2000/svg"
   xmlns:svg="http://www.w3.org/2000/svg">
  <defs
     id="defs848" />
  <sodipodi:namedview
     id="namedview846"
     pagecolor="#ffffff"
     bordercolor="#111111"
     borderopacity="1"
     inkscape:pageshadow="0"
     inkscape:pageopacity="0"
     inkscape:pagecheckerboard="1"
     showgrid="false"
     inkscape:zoom="1.7275125"
     inkscape:cx="143.84845"
     inkscape:cy="81.620247"
     inkscape:current-layer="outputsvg" />
  <path
     id="pFTeR7sfW"
     d="m 3694,1450 c -116,-23 -223,-110 -281,-228 -36,-73 -38,-80 -38,-176 0,-93 3,-107 32,-168 128,-270 464,-333 662,-123 157,165 161,404 9,570 -100,110 -236,154 -384,125 z m 176,-145 c 184,-65 237,-318 96,-458 -20,-20 -51,-44 -68,-53 -42,-22 -142,-29 -195,-15 -156,42 -235,240 -159,395 30,60 84,109 149,133 45,16 127,16 177,-2 z"
     style="fill:#a0c2de" />
  <path
     id="pNy1PtUKL"
     d="m 7490,1449 c -142,-28 -275,-161 -310,-311 -71,-309 221,-583 521,-488 298,94 384,488 153,699 -103,95 -223,128 -364,100 z m 204,-154 c 96,-46 148,-135 148,-250 0,-86 -22,-143 -77,-197 -58,-58 -98,-73 -190,-73 -117,1 -182,40 -236,145 -35,68 -33,186 4,256 30,59 83,107 142,129 53,19 159,15 209,-10 z"
     style="fill:#a0c2de" />
  <path
     id="poSb7dJn1"
     d="m 8963,1446 c -101,-33 -158,-97 -174,-194 -5,-31 -9,-180 -9,-329 V 650 h 70 70 v 273 c 0,285 6,337 38,370 25,24 101,34 141,17 64,-26 66,-34 69,-362 l 4,-298 h 69 70 l -3,313 c -3,278 -5,316 -21,349 -25,49 -76,101 -123,123 -49,23 -147,29 -201,11 z"
     style="fill:#a0c2de" />
  <path
     id="pdc7Nj46W"
     d="m 2261,978 c -58,-255 -106,-471 -109,-481 -4,-15 5,-17 81,-17 h 85 l 20,88 c 11,48 42,184 68,302 26,118 50,218 54,223 3,4 45,-131 92,-300 l 85,-308 h 73 73 l 86,302 c 47,166 88,304 92,307 3,3 36,-134 74,-304 l 68,-310 h 84 c 45,0 83,4 83,8 0,5 -47,219 -105,477 -58,257 -105,469 -105,471 0,2 -38,4 -84,4 h -84 l -14,-47 c -8,-27 -48,-166 -89,-310 -41,-145 -77,-263 -80,-263 -3,0 -38,118 -79,263 -40,144 -79,283 -87,310 l -14,47 h -82 -82 z"
     style="fill:#a0c2de" />
  <path
     id="pBEd5sbsW"
     d="M 4350,1044 V 648 l 153,4 c 135,3 157,6 200,27 121,59 153,239 61,341 -19,21 -48,43 -64,50 -17,7 -30,16 -30,21 0,5 33,71 74,146 40,76 81,153 90,171 l 17,32 h -78 -78 l -88,-170 c -52,-100 -94,-170 -103,-170 -12,0 -14,29 -14,170 v 170 h -70 -70 z m 289,-99 c 32,-16 41,-33 41,-73 -1,-55 -43,-82 -129,-82 h -61 v 85 85 h 60 c 34,0 74,-7 89,-15 z"
     style="fill:#a0c2de" />
  <path
     id="pLyVXyJWF"
     d="M 4990,1045 V 650 h 70 70 v 325 325 h 110 110 v 70 70 h -180 -180 z"
     style="fill:#a0c2de" />
  <path
     id="p10fn65gWK"
     d="M 5480,1044 V 648 l 168,4 c 139,4 176,8 220,26 74,29 118,65 163,134 123,191 69,484 -108,580 -63,34 -150,48 -315,48 h -128 z m 367,229 c 23,-12 50,-39 68,-68 28,-46 30,-54 30,-155 0,-101 -2,-109 -30,-156 -45,-71 -96,-97 -207,-102 l -88,-4 v 257 258 l 94,-5 c 67,-4 105,-11 133,-25 z"
     style="fill:#a0c2de" />
  <path
     id="p10dnoHivM"
     d="M 6590,960 V 480 h 230 230 v 85 85 h -145 -145 v 95 95 h 145 145 v 80 80 h -145 -145 v 220 220 h -85 -85 z"
     style="fill:#a0c2de" />
  <path
     id="puchXHE5f"
     d="M 8150,1045 V 650 h 125 c 68,0 147,5 176,11 59,13 117,59 144,115 24,50 23,153 -2,201 -18,35 -83,95 -115,105 -15,5 -4,29 106,236 l 66,122 h -78 -77 l -89,-170 c -49,-94 -96,-170 -103,-170 -10,0 -13,36 -13,170 v 170 h -70 -70 z m 284,-99 c 40,-17 55,-60 36,-105 -15,-37 -48,-51 -120,-51 h -60 v 85 85 h 55 c 31,0 71,-6 89,-14 z"
     style="fill:#a0c2de" />
  <path
     id="pMQFIUxoS"
     d="m 9440,1430 c 0,-6 29,-180 65,-386 36,-207 65,-380 65,-385 0,-5 33,-9 73,-9 h 73 l 89,275 c 49,151 92,275 96,275 4,0 49,-124 99,-275 l 92,-275 h 69 c 63,0 69,2 74,23 9,39 125,740 125,754 0,9 -17,13 -64,13 -53,0 -66,-3 -70,-17 -2,-10 -21,-119 -42,-243 -21,-124 -41,-229 -45,-233 -4,-5 -44,104 -90,242 l -84,252 -64,-3 -64,-3 -79,-235 c -43,-129 -81,-242 -84,-250 -10,-22 -17,10 -60,264 l -38,226 h -68 c -40,0 -68,-4 -68,-10 z"
     style="fill:#a0c2de" />
  <g
     id="g1064"
     transform="matrix(0.36426455,0,0,0.36426455,3.2186783,6.3573545)"
     style="stroke-width:2.74526">
    <g
       id="l1QvvTofpHALgWwhamQ5ItY"
       fill="#a0c2de"
       style="stroke-width:7.47907">
      <g
         id="g977"
         style="stroke-width:2.74526">
        <path
           id="p7TmYWOjA"
           d="m 2765,5270 c -11,-18 15,-40 89,-77 101,-51 136,-61 276,-83 166,-26 204,-37 232,-68 l 23,-25 -25,6 c -91,22 -329,61 -457,75 l -153,17 -42,42 c -54,52 -131,91 -209,106 -113,21 -472,-19 -525,-58 -17,-12 -17,-15 -4,-29 44,-45 229,-62 461,-42 110,9 184,2 144,-14 -11,-5 -43,-9 -71,-9 -70,-1 -272,-36 -423,-72 l -124,-30 -61,27 c -96,43 -186,45 -306,5 -125,-41 -348,-151 -384,-189 l -28,-30 22,-12 c 16,-8 44,-9 113,0 114,13 103,10 272,85 145,64 209,83 220,65 3,-5 0,-10 -8,-10 -32,0 -301,-145 -407,-219 -69,-48 -121,-78 -130,-75 -37,14 -125,16 -182,4 -72,-16 -153,-67 -290,-185 -128,-111 -216,-221 -194,-242 10,-10 87,17 166,58 51,26 111,71 185,140 110,100 172,143 202,137 10,-2 -22,-36 -89,-95 -99,-87 -208,-200 -290,-303 -33,-41 -44,-47 -108,-62 -144,-34 -218,-110 -334,-343 -89,-177 -120,-281 -87,-293 8,-2 46,29 92,77 70,72 87,97 154,233 41,84 81,160 88,169 15,19 67,54 67,44 0,-3 -17,-37 -39,-73 C 544,3823 483,3699 430,3576 385,3471 381,3465 344,3453 300,3438 222,3377 181,3326 149,3286 83,3126 45,2995 17,2901 3,2793 14,2764 c 6,-15 10,-14 37,12 33,32 111,151 129,199 7,17 28,82 47,145 39,129 61,176 94,205 l 22,20 -7,-20 c -39,-105 -97,-362 -115,-513 -8,-60 -14,-77 -33,-90 -59,-42 -99,-88 -132,-155 -35,-72 -36,-77 -42,-223 -9,-214 17,-424 52,-424 19,0 39,48 65,158 19,78 20,104 14,253 -7,155 -6,169 13,213 30,66 42,59 42,-28 0,-98 17,-308 35,-429 l 15,-98 -40,-58 c -42,-61 -70,-149 -70,-216 0,-144 142,-562 188,-553 15,3 17,19 16,138 0,131 -1,139 -43,265 -49,149 -61,229 -38,260 13,16 16,17 20,5 3,-8 17,-55 32,-105 33,-112 99,-274 161,-396 l 47,-94 -17,-62 C 479,1069 490,964 538,880 631,716 830,470 869,470 c 21,0 9,71 -29,168 -24,63 -56,116 -128,210 -102,136 -122,173 -122,224 0,30 2,29 46,-38 75,-112 141,-192 255,-309 l 107,-110 5,-60 c 10,-113 39,-169 146,-279 137,-141 302,-266 350,-266 28,0 27,13 -10,79 -57,100 -106,157 -216,248 -126,106 -148,128 -162,166 -11,27 -9,27 52,-17 83,-60 255,-165 344,-210 116,-58 398,-165 408,-155 2,2 6,16 10,30 6,26 1,29 -167,111 -95,46 -220,113 -278,148 -115,69 -292,191 -286,197 7,7 113,-39 236,-104 125,-66 232,-103 303,-103 49,0 48,17 -6,67 -87,80 -269,188 -402,239 -60,22 -80,25 -145,21 -41,-3 -84,-8 -96,-12 -17,-5 -41,14 -128,102 -96,96 -246,277 -246,297 0,15 67,-33 185,-134 123,-105 223,-166 291,-177 19,-3 34,-1 34,4 0,45 -187,246 -330,355 -83,63 -136,86 -222,95 l -57,6 -40,76 c -71,137 -191,454 -177,468 8,8 54,-63 126,-189 92,-165 213,-299 242,-270 26,26 -88,291 -194,453 -52,78 -116,137 -181,164 -32,13 -37,20 -46,67 -31,152 -62,522 -43,503 13,-13 53,-142 83,-268 34,-144 127,-312 156,-283 14,14 4,170 -18,277 -47,228 -98,345 -184,416 l -34,28 24,115 c 28,138 68,293 95,375 l 20,60 -7,-155 c -11,-229 -8,-326 14,-390 10,-30 23,-55 28,-55 34,0 79,185 97,398 14,167 9,199 -44,305 l -31,62 28,68 c 34,82 135,282 170,337 l 25,40 -6,-40 c -4,-22 -22,-105 -40,-185 -19,-80 -34,-165 -33,-190 0,-56 13,-138 23,-148 26,-25 99,136 148,328 39,154 45,238 24,319 l -16,64 26,39 c 46,67 154,188 248,279 130,128 128,113 -14,-91 -102,-148 -171,-306 -139,-325 28,-18 143,95 253,249 99,138 126,194 139,292 l 12,88 90,59 c 83,54 337,187 358,187 11,0 -86,-81 -188,-157 -69,-51 -104,-88 -157,-167 -35,-51 -35,-66 -3,-66 54,0 255,123 392,240 60,51 80,76 110,139 21,42 42,79 47,82 18,13 264,68 373,84 174,25 175,16 3,-43 -266,-91 -411,-216 -229,-197 91,9 252,52 366,96 94,37 113,49 170,105 l 63,64 h 83 c 100,-1 245,-14 392,-36 135,-21 120,-31 -74,-45 -75,-5 -161,-13 -191,-18 -67,-11 -161,-46 -192,-71 l -23,-19 40,-18 c 34,-15 68,-18 225,-18 265,0 356,22 446,107 l 31,29 69,-19 c 38,-11 120,-38 183,-61 62,-22 117,-38 121,-36 5,3 19,25 33,49 l 24,43 -193,62 -194,62 -20,40 c -27,51 -82,113 -136,150 -46,31 -172,68 -318,94 -102,17 -272,20 -281,5 z"
           style="stroke-width:2.74526" />
        <path
           id="p119oap17g"
           d="m 2605,4629 c -323,-34 -686,-164 -953,-343 -526,-351 -861,-876 -958,-1502 -23,-150 -23,-460 0,-609 39,-253 104,-454 219,-680 220,-429 564,-762 1004,-972 444,-211 968,-261 1453,-137 849,217 1484,931 1605,1804 20,147 21,430 1,570 -53,377 -190,712 -413,1015 -81,110 -309,340 -418,422 -389,293 -849,446 -1325,442 -74,-1 -171,-5 -215,-10 z m 502,-205 c 325,-48 649,-187 918,-393 82,-62 244,-220 320,-311 299,-358 471,-855 452,-1305 C 4769,1747 4398,1129 3819,787 3482,588 3062,487 2702,518 1844,593 1139,1189 929,2016 c -145,575 -15,1176 359,1661 331,426 839,706 1387,762 110,12 301,5 432,-15 z"
           style="stroke-width:2.74526" />
        <path
           id="pdBo1LHte"
           d="M 2600,4389 C 1865,4306 1240,3800 1011,3103 906,2785 885,2392 955,2061 1124,1263 1783,663 2595,570 c 116,-13 364,-13 480,0 770,89 1417,645 1614,1390 52,198 64,314 58,575 -4,196 -9,248 -31,350 -174,818 -831,1414 -1658,1504 -112,13 -348,12 -458,0 z m 7,-1339 c 82,-253 146,-457 141,-454 -57,35 -763,558 -763,564 0,9 452,347 465,349 3,1 74,-206 157,-459 z m 844,290 c 129,-94 234,-174 234,-179 0,-7 -536,-403 -742,-549 l -31,-22 32,102 c 60,189 268,818 271,818 1,0 108,-77 236,-170 z m -746,-899 c -15,-15 -789,-571 -791,-568 -1,2 -152,470 -178,555 l -7,22 h 492 c 309,0 489,-4 484,-9 z m 1232,-4 c -3,-7 -45,-136 -93,-285 -48,-150 -92,-272 -96,-272 -10,0 -788,559 -788,566 0,2 221,4 491,4 403,0 490,-2 486,-13 z m -947,-567 147,-455 -300,-3 c -165,-1 -301,-1 -303,1 -2,1 44,149 102,327 57,179 125,390 151,470 25,80 49,138 51,130 3,-8 72,-220 152,-470 z"
           style="stroke-width:2.74526" />
      </g>
    </g>
    <g
       id="l4JpKZJevyrxlnu5MK9oeEj"
       fill="#ffffff"
       style="stroke-width:7.47907">
      <g
         id="g986"
         style="stroke-width:2.74526">
        <path
           id="pNb998auh"
           d="M 2645,4469 C 2027,4410 1463,4058 1133,3527 854,3075 767,2507 899,1986 1069,1319 1566,790 2225,577 c 907,-293 1893,99 2358,938 153,275 233,571 244,900 11,338 -57,658 -204,950 -373,745 -1156,1182 -1978,1104 z m 383,-110 c 227,-24 433,-83 627,-178 535,-262 907,-740 1031,-1326 35,-164 44,-464 20,-635 C 4616,1596 4238,1071 3676,788 2745,320 1600,707 1140,1645 c -364,743 -209,1624 387,2196 405,388 955,578 1501,518 z"
           style="stroke-width:2.74526" />
        <path
           id="pIG6F6DE3"
           d="m 2186,3369 c -152,-111 -275,-206 -274,-210 4,-11 909,-671 914,-667 5,5 -344,1060 -354,1070 -5,5 -123,-74 -286,-193 z"
           style="stroke-width:2.74526" />
        <path
           id="pS3NR6DZi"
           d="m 3193,3557 c -12,-14 -354,-1059 -349,-1064 4,-4 910,655 914,666 2,6 -488,370 -544,404 -7,4 -16,1 -21,-6 z"
           style="stroke-width:2.74526" />
        <path
           id="pzimnsPHs"
           d="m 1683,2468 c 2,-7 51,-158 108,-336 59,-184 108,-321 114,-319 14,6 886,635 905,653 12,12 -61,14 -559,14 -454,0 -572,-3 -568,-12 z"
           style="stroke-width:2.74526" />
        <path
           id="p1Dcez42iF"
           d="m 2860,2465 c 39,-37 905,-654 911,-647 4,4 53,148 109,321 56,173 104,321 107,328 4,11 -100,13 -568,13 -501,0 -571,-2 -559,-15 z"
           style="stroke-width:2.74526" />
        <path
           id="p197uH3DDo"
           d="m 2825,2449 c -19,-50 -343,-1064 -341,-1066 2,-2 160,-2 353,-1 l 350,3 -172,533 c -95,293 -175,535 -178,539 -4,3 -9,0 -12,-8 z"
           style="stroke-width:2.74526" />
      </g>
    </g>
  </g>
</svg>
